<svg version="1.1" id="Layer_1" xmlns="http://www.w3.org/2000/svg" xmlns:xlink="http://www.w3.org/1999/xlink" x="0px" y="0px"
	 width="100%" viewBox="0 0 500 500" enable-background="new 0 0 500 500" xml:space="preserve">
<path fill="#000000" opacity="1.000000" stroke="none" 
	d="
M468.000000,501.000000 
	C313.500031,501.000000 159.500061,500.984131 5.500177,501.093933 
	C1.751031,501.096619 0.903618,500.249725 0.906112,496.500061 
	C1.014954,332.833496 1.014940,169.166840 0.906176,5.500292 
	C0.903685,1.751460 1.749861,0.903596 5.499831,0.906091 
	C169.166382,1.014958 332.833038,1.014936 496.499603,0.906197 
	C500.248138,0.903706 501.096466,1.749465 501.093964,5.499712 
	C500.985077,169.166260 500.985077,332.832916 501.093781,496.499481 
	C501.096252,500.247742 500.267944,501.229431 496.497009,501.102753 
	C487.174042,500.789642 477.833496,501.000000 468.000000,501.000000 
z"/>
<path fill="#F6F6F6" opacity="1.000000" stroke="none" 
	d="
M157.306732,248.845612 
	C157.080414,251.658157 157.159973,254.160919 157.031647,256.652954 
	C156.884369,259.512512 156.618973,262.320709 160.722427,262.719849 
	C156.572571,262.719849 152.422729,262.719849 148.272873,262.719849 
	C152.585571,262.174011 152.097687,259.067566 152.038315,255.987076 
	C151.919601,249.827026 151.780533,243.651794 152.093079,237.505371 
	C152.259521,234.232254 151.432556,232.537521 147.805618,232.321808 
	C154.544266,231.871994 161.094986,231.121552 167.563004,232.283127 
	C171.000488,232.900436 173.499237,235.267639 173.940521,239.085815 
	C174.382080,242.906403 172.509598,245.411575 166.740402,248.600708 
	C170.605927,252.965652 171.585144,259.441498 177.249451,262.255005 
	C171.279175,264.102295 170.034454,263.664124 167.062897,258.495605 
	C165.407059,255.615555 163.750565,252.735870 161.991623,249.522720 
	C161.592606,248.758957 161.436066,248.283203 161.515335,247.399094 
	C162.346573,245.866287 163.657974,245.366928 164.634933,244.471100 
	C166.421402,242.832932 166.819778,240.758530 166.341354,238.526306 
	C165.765854,235.841324 163.807190,234.657425 161.232376,234.646866 
	C158.263947,234.634705 158.488007,236.983337 158.406296,238.962494 
	C158.303284,241.457672 158.470459,243.958969 158.230957,246.820969 
	C158.042068,247.676941 157.823395,248.124466 157.306732,248.845612 
z"/>
<path fill="#EAEAEA" opacity="1.000000" stroke="none" 
	d="
M298.156616,272.362549 
	C294.088593,271.608002 290.842621,270.229858 293.059662,265.189636 
	C293.952545,263.159760 290.673096,261.539734 291.943146,259.827545 
	C294.689514,256.125153 292.835876,253.045502 291.766022,249.441147 
	C290.510193,245.210114 293.375641,242.196793 299.587280,240.282959 
	C300.293610,240.657272 300.480682,241.075897 300.371216,241.918640 
	C298.630157,244.395508 297.075287,246.594025 297.611572,249.493439 
	C297.976654,251.467392 298.433472,253.793106 300.950104,253.764511 
	C303.400085,253.736694 303.958221,251.432098 304.349304,249.474442 
	C304.840515,247.015472 303.824402,244.926132 302.103943,242.756104 
	C301.576508,241.724991 301.678162,241.084335 302.669800,240.470093 
	C304.721954,240.725906 306.448883,241.670013 307.646271,239.273895 
	C308.339935,237.885864 309.902954,237.237350 311.457794,237.413315 
	C312.785126,237.563553 314.152954,238.146530 314.026367,239.879395 
	C313.889130,241.757416 312.817780,242.035599 311.283020,241.196823 
	C310.343933,240.683578 309.298279,240.485291 308.520538,241.293533 
	C307.562775,242.288834 308.695526,243.012314 309.100067,243.835464 
	C312.592834,250.942551 309.046967,256.753723 301.037842,257.070984 
	C300.540619,257.090698 300.022064,256.990936 299.547760,257.098328 
	C297.680786,257.521149 294.375610,255.776627 294.364105,258.963684 
	C294.355438,261.362091 297.495605,260.572235 299.344391,260.716644 
	C301.657776,260.897369 303.993347,260.782043 306.310059,260.934814 
	C312.036896,261.312469 313.654755,264.046021 311.207123,269.756836 
	C310.436462,270.086823 309.989807,270.010284 309.350525,269.430420 
	C306.672943,266.672424 300.773315,265.166534 297.769684,266.606018 
	C294.570648,268.139160 297.721741,269.360687 298.320129,271.041931 
	C298.421021,271.613495 298.402191,271.850433 298.156616,272.362549 
z"/>
<path fill="#EAEAEA" opacity="1.000000" stroke="none" 
	d="
M332.111420,262.361237 
	C325.811005,264.317047 321.331329,263.137634 318.474335,259.204987 
	C315.683228,255.362930 315.648041,248.633804 318.549866,244.582382 
	C321.524323,240.429474 325.700256,239.336517 330.478638,240.535767 
	C334.302094,241.495361 337.718201,243.508499 336.936218,247.997833 
	C336.082611,252.898300 331.703583,251.015976 328.373718,251.444427 
	C330.898376,249.599792 333.354401,247.938858 331.798645,244.418381 
	C330.744171,242.032349 328.737305,241.437653 326.418549,241.939819 
	C323.360931,242.601974 322.304749,244.956955 321.840485,247.775269 
	C321.148132,251.977798 325.783691,248.606735 326.478912,251.477722 
	C324.169800,251.886536 320.687195,251.187698 321.910217,255.703033 
	C323.199341,260.462372 325.529022,262.242401 331.413025,261.392212 
	C331.956329,261.501984 332.114410,261.735809 332.111420,262.361237 
z"/>
<path fill="#EAEAEA" opacity="1.000000" stroke="none" 
	d="
M197.145416,261.484375 
	C191.461487,264.486389 186.249542,263.875183 182.819412,260.235199 
	C179.591965,256.810303 178.915405,250.361221 181.300476,245.756714 
	C183.471573,241.565277 188.194244,239.357147 193.077805,240.250198 
	C197.853806,241.123566 201.600769,244.728867 200.591354,247.998596 
	C199.145432,252.682236 195.052429,251.463760 191.339264,251.351532 
	C193.828690,249.661835 197.206482,248.654907 195.357529,244.559555 
	C194.147324,241.878998 192.067825,241.438049 189.620514,241.999786 
	C186.518112,242.711945 185.647034,245.383286 185.211792,248.019791 
	C184.566437,251.929062 188.821579,248.667007 189.668457,251.178940 
	C184.863251,251.134308 184.381119,253.633148 185.973114,257.433105 
	C187.802322,261.799255 190.727280,262.817932 196.466095,260.543274 
	C196.983475,260.588989 197.159409,260.832428 197.145416,261.484375 
z"/>
<path fill="#EAEAEA" opacity="1.000000" stroke="none" 
	d="
M278.474274,241.805649 
	C279.686615,240.160934 279.162842,238.140106 279.278473,236.176804 
	C279.461731,233.066101 280.077057,229.644272 274.547699,230.351669 
	C275.318573,229.511673 275.476990,229.179031 275.654633,229.168442 
	C284.022003,228.669373 284.021393,228.672562 284.025604,237.146576 
	C284.028870,243.778809 284.196259,250.416702 283.964478,257.040680 
	C283.862488,259.955566 284.249237,262.050049 287.824890,262.488007 
	C285.055176,263.175293 282.641174,263.232239 280.126221,262.345154 
	C279.292297,260.841705 279.276459,259.405945 278.204163,258.028931 
	C277.061920,253.012512 278.119293,248.121857 276.393036,243.166962 
	C276.668793,241.885147 277.268677,241.500992 278.474274,241.805649 
z"/>
<path fill="#EAEAEA" opacity="1.000000" stroke="none" 
	d="
M349.630371,240.817657 
	C351.879913,240.830521 353.674713,240.830521 355.737610,240.830521 
	C355.404388,241.523209 355.326630,241.899811 355.200226,241.916931 
	C347.952362,242.898468 347.951935,242.895523 347.951996,250.421875 
	C347.951996,252.416031 347.924438,254.410660 347.957642,256.404266 
	C348.050232,261.961853 348.900452,262.566528 354.138733,260.586121 
	C353.425110,263.419189 351.273132,263.764008 349.183228,263.602203 
	C346.518219,263.395844 344.540405,262.014282 343.790222,259.211456 
	C342.648956,254.947571 343.391205,250.612900 343.215698,246.314453 
	C343.074249,242.850861 343.144409,242.847992 339.799805,241.535889 
	C340.945587,240.436295 343.821747,241.310974 343.233307,238.343948 
	C342.731750,235.814850 344.635315,235.073425 346.546753,235.130829 
	C349.031494,235.205444 347.561523,237.359695 347.929413,238.549301 
	C348.195892,239.410904 347.686859,240.633209 349.630371,240.817657 
z"/>
<path fill="#F6F6F6" opacity="1.000000" stroke="none" 
	d="
M212.526978,260.920624 
	C209.759171,263.182434 206.947205,263.412079 202.992065,262.654053 
	C207.149475,261.367737 207.170715,258.647644 207.126450,255.690079 
	C207.007950,247.771347 207.083572,239.849686 207.055817,231.460678 
	C206.974258,230.401474 207.165451,229.902878 207.817047,229.330368 
	C210.644699,228.636917 212.058914,229.180832 211.891739,232.354523 
	C211.691696,236.152084 212.009583,239.976929 212.545013,243.867126 
	C213.177505,244.136566 213.368149,244.328857 213.723389,244.892212 
	C213.965729,249.759476 212.968887,254.255325 213.837891,259.155304 
	C213.647522,260.098236 213.361389,260.547424 212.526978,260.920624 
z"/>
<path fill="#EAEAEA" opacity="1.000000" stroke="none" 
	d="
M248.106873,260.878326 
	C241.970825,265.870422 236.317581,263.573090 235.569031,255.783844 
	C235.268539,252.657120 235.277512,249.475784 235.450241,246.336060 
	C235.598557,243.640579 235.240509,241.614822 231.001358,241.827881 
	C233.814316,240.252625 235.821289,241.043823 237.713943,240.790192 
	C239.851883,240.503677 240.112549,241.719055 240.078140,243.466156 
	C239.999771,247.447311 239.971970,251.434509 240.103607,255.413284 
	C240.223938,259.050354 241.650085,261.542725 246.307236,260.865021 
	C247.028473,260.743408 247.359085,260.664307 248.106873,260.878326 
z"/>
<path fill="#F6F6F6" opacity="1.000000" stroke="none" 
	d="
M249.906464,258.264709 
	C250.844009,254.404510 250.722458,250.757050 250.699493,247.114380 
	C250.671844,242.728210 250.684296,242.728134 247.316727,241.228745 
	C255.166122,240.229675 255.166092,240.229675 255.165970,247.683792 
	C255.165909,250.996521 255.379440,254.327362 255.100357,257.616394 
	C254.866119,260.377045 255.602692,262.041473 258.616180,262.555695 
	C255.990936,261.792206 252.515198,265.708008 251.003677,260.388336 
	C250.522736,259.602264 250.112289,259.178436 249.906464,258.264709 
z"/>
<path fill="#EAEAEA" opacity="1.000000" stroke="none" 
	d="
M215.814392,241.415909 
	C222.047729,239.119553 226.228516,240.958939 228.254349,246.498550 
	C230.693054,253.167114 227.957977,260.624786 222.179031,262.875763 
	C221.121277,263.287781 219.928574,263.353333 218.452789,263.481873 
	C217.761292,263.015564 217.601013,262.583252 217.823944,261.753723 
	C219.973969,259.472687 221.886337,257.520264 222.434433,254.564117 
	C223.504654,248.792175 221.860123,245.727676 216.046753,243.363235 
	C215.557831,242.672211 215.502502,242.196182 215.814392,241.415909 
z"/>
<path fill="#EAEAEA" opacity="1.000000" stroke="none" 
	d="
M276.200073,261.742310 
	C270.413849,264.630157 265.907837,263.353210 263.425262,258.491608 
	C260.526825,252.815689 262.487579,244.540146 267.529755,241.562820 
	C268.647949,240.902542 269.996643,240.632660 271.595367,240.215057 
	C272.314941,240.606018 272.524048,241.035385 272.479095,241.908997 
	C270.597229,245.023849 268.628937,247.694717 268.559967,251.223251 
	C268.456177,256.534576 270.088379,258.721649 275.786041,260.541260 
	C276.180542,260.979309 276.281189,261.201782 276.200073,261.742310 
z"/>
<path fill="#C5C5C5" opacity="1.000000" stroke="none" 
	d="
M332.272705,262.716003 
	C331.910309,262.506866 331.870331,262.260895 331.814270,261.641541 
	C333.138214,260.021454 334.478210,258.774750 336.503479,256.890503 
	C336.315796,260.436188 334.356781,261.488007 332.272705,262.716003 
z"/>
<path fill="#C5C5C5" opacity="1.000000" stroke="none" 
	d="
M309.519043,268.708557 
	C310.068695,269.096344 310.262024,269.395905 310.689880,269.827087 
	C309.441101,272.186340 306.994690,272.416504 304.332031,272.891907 
	C303.626587,272.438171 303.486969,271.986633 303.657532,271.136444 
	C305.356110,269.501312 307.184479,268.875885 309.519043,268.708557 
z"/>
<path fill="#C5C5C5" opacity="1.000000" stroke="none" 
	d="
M217.872742,261.820892 
	C218.033691,262.431183 218.078018,262.704559 218.135162,263.178162 
	C215.870758,263.813324 214.077271,262.855286 212.256073,261.246277 
	C212.376266,260.707550 212.632568,260.480591 213.012939,260.023682 
	C215.031235,259.366211 216.424042,260.291748 217.872742,261.820892 
z"/>
<path fill="#C5C5C5" opacity="1.000000" stroke="none" 
	d="
M272.251099,242.202148 
	C271.966431,241.533432 271.954437,241.166199 271.947021,240.523026 
	C274.239471,239.634491 276.193726,240.514603 278.437500,241.838837 
	C278.168640,242.119064 277.559753,242.181381 276.642822,242.245056 
	C275.122314,243.189011 273.844635,243.166260 272.251099,242.202148 
z"/>
<path fill="#C5C5C5" opacity="1.000000" stroke="none" 
	d="
M207.672455,229.069626 
	C207.848618,229.667297 207.653275,230.165359 207.243774,230.827789 
	C205.994431,230.383820 204.432907,231.334488 203.483063,229.509964 
	C204.648270,228.578217 206.054047,229.094971 207.672455,229.069626 
z"/>
<path fill="#C5C5C5" opacity="1.000000" stroke="none" 
	d="
M276.344360,261.996033 
	C276.002838,261.811859 275.987335,261.563385 275.934448,260.943359 
	C275.828583,259.967529 276.079193,259.474976 276.629883,258.820557 
	C276.951965,258.495331 277.084229,258.370636 277.411194,258.057739 
	C277.738342,257.747223 277.870728,257.624908 278.228760,257.353577 
	C279.840942,258.123383 280.302460,259.456207 280.104309,261.493103 
	C278.914795,257.637085 277.791260,261.667816 276.344360,261.996033 
z"/>
<path fill="#C5C5C5" opacity="1.000000" stroke="none" 
	d="
M197.276001,261.819855 
	C196.922440,261.635834 196.889389,261.378754 196.831940,260.733582 
	C197.707962,259.430054 197.824875,257.570038 199.830185,257.834717 
	C200.264069,259.870300 198.565598,260.603760 197.276001,261.819855 
z"/>
<path fill="#C5C5C5" opacity="1.000000" stroke="none" 
	d="
M161.732788,246.825363 
	C162.000397,247.617218 161.958862,248.065750 161.903107,248.851868 
	C160.553558,249.129318 159.218231,249.069199 157.487823,249.084625 
	C157.095856,248.638870 157.098984,248.117615 157.108215,247.204895 
	C158.473343,245.695908 159.919327,245.709671 161.732788,246.825363 
z"/>
<path fill="#C5C5C5" opacity="1.000000" stroke="none" 
	d="
M249.567200,258.076385 
	C250.278870,258.415802 250.699738,258.863892 251.070633,259.635681 
	C249.885834,259.270538 249.709961,260.531067 248.811035,261.038330 
	C248.219498,261.114471 247.914917,261.057465 247.154114,260.911499 
	C247.557404,259.943390 248.416901,259.064209 249.567200,258.076385 
z"/>
<path fill="#C5C5C5" opacity="1.000000" stroke="none" 
	d="
M215.734650,241.161194 
	C216.029938,241.528854 216.009338,241.928375 216.001099,242.627686 
	C215.865662,244.201538 215.044159,244.888794 213.593277,245.335754 
	C213.169235,245.124939 213.081070,244.898743 212.989883,244.308426 
	C213.205872,242.504257 214.488586,242.004471 215.734650,241.161194 
z"/>
<path fill="#EAEAEA" opacity="1.000000" stroke="none" 
	d="
M303.732422,271.003357 
	C303.840179,271.693115 303.825531,272.013824 303.938873,272.581421 
	C302.913116,272.880249 301.861603,272.936859 300.419464,272.927673 
	C299.629730,272.391479 299.507019,271.857117 299.929932,270.920349 
	C301.312988,269.971222 302.415070,269.978424 303.732422,271.003357 
z"/>
<path fill="#C5C5C5" opacity="1.000000" stroke="none" 
	d="
M354.741119,257.517700 
	C356.290955,258.630676 355.518402,259.515411 354.680878,260.331635 
	C354.553894,260.455383 353.969543,260.365143 353.844177,260.193359 
	C353.096741,259.169037 354.082367,258.423523 354.741119,257.517700 
z"/>
<path fill="#C5C5C5" opacity="1.000000" stroke="none" 
	d="
M302.651184,240.222702 
	C302.791412,240.724136 302.564819,241.069855 302.191406,241.565277 
	C301.684601,242.221283 301.198792,242.419876 300.272400,242.026733 
	C299.865387,241.429169 299.824799,241.109055 299.888184,240.545227 
	C300.721802,240.227692 301.503082,240.147339 302.651184,240.222702 
z"/>
<path fill="#C5C5C5" opacity="1.000000" stroke="none" 
	d="
M299.804260,271.137268 
	C300.126007,271.823975 300.129272,272.118500 300.029114,272.638031 
	C299.482635,272.889984 298.936493,272.918060 298.160095,272.791931 
	C297.920593,272.396667 297.911316,272.155579 297.932770,271.553894 
	C298.419312,270.732483 298.961090,270.582703 299.804260,271.137268 
z"/>
<path fill="#000000" opacity="1.000000" stroke="none" 
	d="
M162.412811,247.098022 
	C160.672577,247.084671 159.303223,247.000671 157.524109,246.865051 
	C157.094833,243.986389 156.829498,241.131561 157.144897,238.342392 
	C157.344879,236.574020 155.404205,233.582962 158.882309,233.192352 
	C162.593048,232.775604 166.408661,233.014801 167.947922,237.440292 
	C169.466034,241.804947 167.655121,245.051178 162.412811,247.098022 
z"/>
<path fill="#000000" opacity="1.000000" stroke="none" 
	d="
M299.614685,241.880493 
	C300.423920,241.786057 300.890259,241.829376 301.700623,241.793823 
	C306.184723,244.379730 307.195251,250.461609 304.090820,254.029846 
	C301.997345,256.436066 298.301453,256.157227 297.206696,253.166046 
	C295.759796,249.212646 295.058838,245.072311 299.614685,241.880493 
z"/>
<path fill="#000000" opacity="1.000000" stroke="none" 
	d="
M300.411438,271.481262 
	C299.571106,271.388550 299.122528,271.246552 298.318726,271.148926 
	C295.846130,270.397949 293.702148,269.379059 294.435028,266.650330 
	C295.197418,263.811859 297.756470,265.296936 299.530090,265.150085 
	C301.673981,264.972595 303.860962,265.043213 306.006683,265.246033 
	C307.747070,265.410522 309.856232,265.371124 309.899597,268.411987 
	C308.320068,270.000946 306.672150,270.990662 304.292511,271.219666 
	C302.905823,271.395355 301.854523,271.413666 300.411438,271.481262 
z"/>
<path fill="#000000" opacity="1.000000" stroke="none" 
	d="
M277.894989,258.819794 
	C277.091858,259.317444 276.581879,259.711670 275.984467,260.338837 
	C270.278839,261.611603 268.674042,260.662354 267.687134,255.162033 
	C266.819794,250.328049 266.697845,245.559891 271.658813,242.056641 
	C273.189972,241.981689 274.401581,242.062729 275.973999,242.195099 
	C280.452820,246.409775 279.581146,251.424561 278.604828,256.818024 
	C278.454346,257.204529 278.483521,257.609619 278.679382,257.663208 
	C278.747589,258.119720 278.523834,258.456512 277.894989,258.819794 
z"/>
<path fill="#000000" opacity="1.000000" stroke="none" 
	d="
M213.152313,245.737442 
	C214.021866,244.680969 214.786316,244.010803 215.782120,243.134064 
	C220.655029,241.782669 222.756470,244.186157 223.653610,248.348465 
	C224.978683,254.496246 223.254883,259.318817 218.383118,262.062622 
	C216.381729,261.938080 214.822311,261.539612 213.448181,259.949402 
	C211.380646,255.248428 211.225189,250.692581 213.152313,245.737442 
z"/>
<path fill="#EAEAEA" opacity="1.000000" stroke="none" 
	d="
M277.881805,258.794189 
	C277.794556,258.506958 277.987244,258.090668 278.527588,257.695618 
	C278.637390,258.032928 278.399567,258.349060 277.881805,258.794189 
z"/>
</svg>